<svg height="512pt" viewBox="0 0 512 512" width="512pt" xmlns="http://www.w3.org/2000/svg"><path d="m512 256c0 141.386719-114.613281 256-256 256s-256-114.613281-256-256 114.613281-256 256-256 256 114.613281 256 256zm0 0" fill="#00eccf"/><path d="m510.816406 280.613281-253.46875-253.46875s-177.832031 130.546875-72.117187 234.210938l50.617187 50.628906-157.726562-39.34375-8.871094 35.566406 14.96875 13.316407-17.265625-4.308594-8.871094 35.566406 29.265625 29.820312-9.015625 2.246094 8.871094 35.566406 73.070313 73.070313c29.574218 11.933594 61.878906 18.515625 95.726562 18.515625 133.078125 0 242.429688-101.550781 254.816406-231.386719zm0 0" fill="#00cab1"/><path d="m69.25 308.195312 8.871094-35.5625 343.136718 85.578126-8.867187 35.566406zm0 0" fill="#ff7600"/><path d="m421.25 358.234375-8.871094 35.558594-109.230468-27.25-45.820313-11.429688v-37.769531l45.820313 11.429688 75.710937 18.890624zm0 0" fill="#da6100"/><path d="m78.328125 384.859375 343.140625-85.582031 8.871094 35.566406-343.140625 85.582031zm0 0" fill="#ff9b00"/><path d="m430.328125 334.824219-51.46875 12.839843-75.710937 18.878907-19.207032 4.800781-26.613281 6.628906v-37.769531l45.820313-11.429687 118.3125-29.511719zm0 0" fill="#ff7600"/><path d="m58.085938 352.769531 8.867187-35.566406 343.140625 85.582031-8.871094 35.566406zm0 0" fill="#da6100"/><path d="m410.078125 402.804688-8.867187 35.558593-143.882813-35.890625v-37.769531l26.613281 6.640625zm0 0" fill="#b04b00"/><path d="m257.347656 27.144531s-237.800781 174.558594 0 280.257813c0 0 110.121094-24.476563 102.671875-135.757813 0 0-10.230469 13.425781-21.101562 16.273438-15.351563 4.019531-32.910157-4.605469-28.136719-30.144531 11.558594-61.796876-45.457031-60.65625-53.433594-130.628907zm0 0" fill="#ffe767"/><path d="m257.34375 307.40625h-.011719v-280.25c.011719-.007812.011719-.007812.011719-.007812 7.980469 69.96875 65 68.828124 53.4375 130.628906-4.777344 25.53125 12.78125 34.160156 28.140625 30.140625 10.871094-2.839844 21.101563-16.269531 21.101563-16.269531 7.441406 111.277343-102.679688 135.757812-102.679688 135.757812zm0 0" fill="#ffd000"/><path d="m313.296875 205.253906s-.207031 5.390625-5.777344 9.546875c-18.90625 14.097657-32.1875-1.164062-26.527343-14.050781.046874-.105469.101562-.207031.148437-.3125 30.648437-64.929688-42.203125-92.027344-42.203125-92.027344s26.628906 32.9375-16.078125 71.476563c-58.050781 52.382812 34.488281 106.421875 34.488281 106.421875s3.203125-18.554688 36.605469-34.578125c30.898437-14.824219 19.34375-46.476563 19.34375-46.476563zm0 0" fill="#ff9b00"/><path d="m293.953125 251.726562c-33.398437 16.019532-36.609375 34.582032-36.609375 34.582032s0 0-.011719 0v-168.03125c19.230469 12.988281 44.019531 39.351562 23.8125 82.160156-.050781.109375-.101562.210938-.152343.308594-5.660157 12.890625 7.621093 28.152344 26.519531 14.050781 5.570312-4.148437 5.78125-9.539063 5.78125-9.539063s11.558593 31.648438-19.339844 46.46875zm0 0" fill="#ff7600"/></svg>